<svg xmlns="http://www.w3.org/2000/svg" xmlns:xlink="http://www.w3.org/1999/xlink"><symbol viewBox="0 0 31 41" id="ruble"><path d="M17.863.813c4.147 0 7.37 1.098 9.666 3.296 2.314 2.198 3.47 5.092 3.47 8.681 0 3.627-1.156 6.53-3.47 8.71-2.297 2.179-5.519 3.268-9.666 3.268H9.612v11.814l4.352.769v3.462H0V37.35l4.352-.77V5.072L0 4.3V.813h17.862zM9.612 20.538h8.25c2.635 0 4.602-.724 5.902-2.17 1.317-1.466 1.976-3.306 1.976-5.522 0-2.217-.66-4.066-1.976-5.55-1.3-1.484-3.267-2.225-5.901-2.225H9.612v15.467z"/><path d="M.156 28.154h28.709v3.165H.156z"/></symbol></svg>